<?xml version="1.0" encoding="UTF-8"?>
<!DOCTYPE svg PUBLIC "-//W3C//DTD SVG 1.1//EN" "http://www.w3.org/Graphics/SVG/1.1/DTD/svg11.dtd">
<!-- Creator: CorelDRAW 2017 -->
<svg xmlns="http://www.w3.org/2000/svg" xml:space="preserve" width="100mm" height="58.9075mm" version="1.1" style="shape-rendering:geometricPrecision; text-rendering:geometricPrecision; image-rendering:optimizeQuality; fill-rule:evenodd; clip-rule:evenodd"
viewBox="0 0 10135 5970"
 xmlns:xlink="http://www.w3.org/1999/xlink">
 <defs>
  <style type="text/css">
   <![CDATA[
    .fil0 {fill:white}
    .fil1 {fill:red}
   ]]>
  </style>
 </defs>
 <g id="Слой_x0020_1">
  <metadata id="CorelCorpID_0Corel-Layer"/>
  <path id="text" class="fil0" d="M9027 2370c370,-50 739,-107 1107,-172 0,109 0,163 0,272 -137,20 -211,30 -340,47 -23,3 -27,3 -27,24 0,850 0,1695 0,2545 -148,-21 -222,-31 -370,-51 0,-815 0,-1619 0,-2434 0,-25 -1,-34 -26,-31 -135,16 -203,25 -345,41 0,-97 0,-145 0,-242zm-2918 -1328c0,-115 -1,-230 -1,-345 0,-166 -43,-228 -205,-283 -1,-29 -2,-58 -4,-86 -2,-31 -3,-62 -4,-92 -2,-136 -113,-233 -270,-236 -28,0 -75,-1 -111,0 0,0 -844,-2 -1134,0l-23 0c-35,0 -58,0 -101,4 -136,11 -255,161 -287,207 -108,151 -120,432 -121,446 3,161 1,325 0,484 -1,100 -2,200 -2,300 0,118 61,197 182,237 40,13 72,24 79,32 6,7 6,37 6,75l0 54c0,40 0,80 0,120 2,107 65,191 170,224 197,62 408,127 623,187 21,6 45,9 71,9 31,0 62,-4 91,-13 166,-47 334,-99 495,-149l95 -29c123,-38 186,-118 186,-239l0 -45c1,-59 1,-120 -1,-181 -1,-16 2,-20 2,-20 0,0 3,-3 14,-4 18,-3 34,-8 48,-13 5,-2 10,-4 16,-5 127,-41 187,-118 187,-243 0,-131 0,-262 -1,-394zm-1767 749c0,-6 0,-12 0,-17 5,1 9,2 13,4l122 37c133,40 266,80 398,121 71,22 137,22 207,0 106,-34 213,-66 319,-98l85 -26c39,-12 78,-23 120,-35l10 -3c0,5 0,11 0,16 0,51 -1,99 1,148 1,27 -5,40 -42,51 -96,28 -192,58 -289,87 -91,28 -183,56 -274,83 -19,6 -40,7 -53,4 -218,-64 -412,-123 -593,-181 -8,-3 -21,-15 -22,-18 -4,-56 -3,-113 -3,-173zm610 -58c-165,-49 -330,-99 -494,-149 -116,-35 -232,-70 -348,-105 -38,-11 -41,-28 -41,-45 1,-44 -1,-88 -2,-130 -1,-33 -2,-66 -2,-100 0,-87 -2,-175 -4,-261 -1,-64 -3,-129 -4,-194 45,81 116,126 206,126l947 -18 3 7 0 0c2,7 6,14 13,21 59,54 118,79 187,79 72,1 145,1 217,0 70,-1 120,-43 121,-103 1,-27 -9,-52 -27,-71 -23,-23 -57,-37 -96,-37 -29,0 -57,-1 -86,-1l-109 0c-34,0 -40,-11 -41,-34 -1,-19 -1,-39 0,-58 1,-33 3,-39 47,-40 133,-1 266,-1 399,0 43,0 45,7 45,40 0,135 0,270 0,404 0,123 0,246 0,370 0,23 -5,34 -39,44 -121,36 -241,73 -362,110 -158,48 -316,96 -475,143 -17,5 -42,6 -58,1zm753 -1383l-214 0 -9 1c-5,1 -133,33 -217,74 -78,38 -112,142 -110,224 0,4 -3,16 -5,24 0,1 -1,2 -1,3l-842 -2c-47,0 -63,-12 -63,-82 0,-52 -2,-97 -4,-143 -2,-50 -4,-97 -4,-152 0,-32 -4,-57 -6,-76 -1,-8 -2,-18 -3,-24 5,-1 15,-3 34,-4l1377 -10c35,1 57,5 67,22 0,52 0,107 0,147zm440 5617l204 0c25,0 22,2 40,-16l84 -87c24,-24 19,-29 19,-88 0,-37 0,-166 0,-245 0,-55 6,-65 -34,-65l-198 0c-23,0 -23,0 -23,23l0 125c0,16 0,26 20,26l53 0c22,0 21,0 21,28 0,34 0,83 0,114 0,15 0,15 -16,15l-150 0c-22,0 -21,0 -21,-26l0 -440c0,-31 0,-31 24,-31l139 0c19,0 19,0 19,19l0 84c0,12 2,24 17,24l139 0c9,0 9,0 9,-24 0,-41 0,-70 0,-104 0,-34 0,-43 -23,-68 -101,-100 -95,-98 -139,-98l-201 0c-16,0 -29,0 -42,9l-84 84c-23,23 -29,37 -31,73l1 510c0,24 -2,38 10,50l81 82c25,25 29,26 81,26zm-2877 -775l2 360 -2 389c0,31 -6,26 24,26 64,0 222,0 316,0 63,0 62,4 131,-65 43,-43 56,-44 56,-112 0,-24 0,-116 0,-168 0,-55 -35,-48 -35,-70 0,-21 36,-22 36,-86l0 -179c0,-30 -5,-33 -27,-55l-70 -72c-17,-17 -35,-29 -56,-27l-336 -1c-42,-3 -37,27 -37,60zm186 104l161 0c10,0 18,8 18,17l0 135c0,10 -8,18 -18,18l-161 0c-10,0 -17,-8 -17,-18l0 -135c0,-10 8,-17 17,-17zm0 333l161 0c10,0 18,8 18,18l0 135c0,10 -8,18 -18,18l-161 0c-10,0 -17,-8 -17,-18l0 -135c0,-10 8,-18 17,-18zm934 168l0 -494c3,-41 -7,-51 -26,-70l-84 -83c-18,-18 -23,-17 -50,-17l-203 0c-26,0 -32,-1 -50,17l-84 83c-20,19 -29,30 -26,70l0 494c-3,41 7,51 26,70l84 83c18,18 23,17 50,17l203 0c26,0 32,1 50,-17l84 -83c20,-19 29,-30 26,-70zm-336 -501l149 0c13,0 23,11 23,23l0 461c0,13 -10,23 -23,23l-149 0c-13,0 -23,-11 -23,-23l0 -461c0,-13 11,-23 23,-23zm805 318l140 322c14,33 14,33 -24,33l-130 0c-24,-2 -32,-12 -41,-33l-57 -133c-4,-9 -10,-27 -11,-27 -1,0 -8,18 -11,27l-57 133c-13,29 -20,33 -55,33l-102 0c-51,0 -50,-2 -28,-53l129 -302c26,-61 27,-60 -1,-125l-128 -302c-22,-51 -23,-54 28,-53l102 0c35,0 42,3 55,33l57 133c3,8 10,26 11,27 1,0 7,-17 11,-27l57 -133c9,-21 17,-31 41,-33l130 0c38,0 38,0 24,33l-138 323c-28,65 -28,65 -2,125zm247 -481l130 0c9,0 17,7 17,17l0 802c0,9 -7,17 -17,17l-130 0c-9,0 -17,-7 -17,-17l0 -802c0,-9 7,-17 17,-17zm239 0l136 0c19,0 33,7 42,26l198 406 0 -417c0,-9 7,-17 17,-17l130 0c9,0 17,7 17,17l0 802c0,9 -8,18 -17,18l-135 0c-15,0 -30,4 -37,-13l-186 -427 -12 422c0,9 -7,18 -17,18l-136 0c-9,0 -17,-9 -17,-18l0 -802c0,-9 7,-15 16,-15zm-2260 361c-1000,75 -1956,207 -2377,287l98 98c428,-78 1346,-200 2279,-270l0 -114zm3599 125c655,52 1470,143 2189,257l100 -100c-755,-122 -1604,-218 -2289,-272l0 114zm0 -214c711,56 1588,156 2374,287l99 -99c-821,-139 -1732,-244 -2473,-302l0 114zm-6058 288c390,-77 1380,-217 2459,-299l0 -114c-1162,88 -2191,247 -2556,322l97 91zm481 -2914c0,389 0,584 0,974 0,68 -20,137 -60,203 -41,66 -98,121 -165,165 -69,45 -144,70 -225,74l-257 12c-28,1 -30,6 -30,32 0,339 0,503 0,848 -147,21 -221,32 -367,55 0,-832 0,-1664 0,-2496 0,-77 21,-148 64,-209 43,-62 100,-108 169,-138 69,-29 141,-37 218,-25 82,13 123,19 205,32 76,12 151,43 222,93 69,49 126,108 167,176 42,68 62,137 62,205zm-738 -235l0 1380c0,21 1,22 20,22l335 -7c16,0 14,3 14,-13l0 -1349c0,-10 1,-10 -11,-12l-330 -42c-31,-4 -28,-5 -28,19zm1663 2139l0 -866c0,-26 -3,-21 -30,-21l-317 1c-23,0 -25,-3 -25,20l0 1103c-148,15 -222,23 -369,40 0,-856 0,-1711 0,-2566 263,34 395,50 659,78 75,8 149,34 219,78 69,43 126,96 168,154 43,60 64,120 64,178 0,213 0,326 0,527 0,40 6,35 -19,66 -58,71 -94,116 -153,191 -17,21 -17,15 0,35 60,74 96,118 155,189 22,27 18,20 18,55 0,411 0,628 0,1050 -97,-11 -189,-48 -274,-113 -64,-49 -96,-117 -96,-198zm-372 -2000l0 850c0,37 -2,35 33,35l317 5c31,0 28,1 28,-28l0 -823c0,-16 4,-19 -17,-20l-347 -32c-17,-2 -15,1 -15,13zm926 1790c0,-530 0,-1060 0,-1590 0,-58 22,-113 64,-163 43,-51 102,-90 174,-118 70,-28 142,-40 215,-35 82,6 124,8 206,14 76,5 149,26 219,63 71,37 128,83 170,137 43,54 64,110 64,166 0,502 0,1004 0,1506 0,59 -20,115 -60,165 -42,53 -98,95 -167,126 -73,34 -149,52 -227,57 -88,5 -133,7 -221,13 -79,5 -152,-8 -217,-38 -69,-32 -123,-75 -162,-129 -39,-54 -59,-112 -59,-173zm370 -1683l0 1777c0,36 -6,42 30,40l313 -14c37,-2 30,-9 30,-48l0 -1718c0,-30 5,-38 -24,-39l-325 -17c-24,-1 -24,-2 -24,20zm2019 1134c0,204 0,306 0,511 0,56 -21,109 -62,157 -43,50 -100,88 -167,116 -69,29 -142,45 -218,46l-616 16c-34,1 -28,0 -28,-36l0 -344c0,-35 -6,-36 29,-36l317 -6c29,-1 25,6 25,34l0 147c0,38 4,34 40,34l283 -5c29,-1 26,0 26,-28l0 -700c0,-37 7,-39 -29,-39 -83,0 -133,0 -225,0 -90,0 -170,-16 -240,-48 -71,-32 -127,-77 -167,-133 -39,-55 -59,-117 -59,-184 0,-194 0,-290 0,-484 0,-65 24,-121 70,-169 44,-46 107,-83 187,-110 76,-25 157,-37 244,-35l551 8c40,1 38,-3 38,34l0 327c0,40 0,45 -41,45l-303 -2c-26,0 -27,3 -27,-24l0 -161c0,-28 -6,-27 -37,-28l-267 -5c-44,-1 -44,-9 -44,33l0 698c0,42 -5,40 39,40 89,0 144,1 243,1 72,0 145,15 214,47 66,30 122,73 163,124 40,50 61,103 61,159zm1301 -974c0,321 0,482 0,803 0,56 -20,113 -61,166 -41,53 -99,96 -167,128 -69,33 -145,49 -227,49 -101,-1 -158,-1 -247,-2 -48,0 -43,-10 -43,36 0,240 0,372 0,623 -148,-2 -223,-3 -371,-3 0,-598 0,-1195 0,-1793 0,-55 21,-108 64,-157 44,-50 101,-90 170,-121 69,-31 143,-47 220,-48 83,-2 124,-2 206,-5 77,-2 152,12 223,42 69,29 127,70 168,120 42,50 62,105 62,161zm-744 -93l0 1006c0,28 -5,36 23,36l314 1c40,0 36,-5 36,-49l0 -994c0,-26 4,-34 -22,-34l-330 6c-26,0 -22,2 -22,28zm929 1596c0,-506 0,-1013 0,-1519 0,-55 21,-109 64,-162 43,-53 100,-98 172,-133 73,-36 147,-56 221,-61l626 -47c30,-2 30,0 30,30l0 656c0,31 -1,32 -31,33l-302 10c-37,1 -37,1 -37,-35l0 -432c0,-25 2,-26 -25,-24l-322 18c-31,2 -26,3 -26,34l0 734c0,35 2,34 39,33 122,-1 190,-2 316,-3 20,0 17,2 17,22 0,66 0,95 0,158 0,27 -3,28 -31,28l-309 -1c-30,0 -33,0 -33,30l0 726c0,47 -7,44 41,47l307 15c31,1 25,-7 25,-39l0 -418c0,-34 -5,-41 29,-40l294 7c46,1 47,3 47,51l0 674c-262,-20 -393,-29 -656,-43 -76,-4 -150,-24 -221,-58 -74,-35 -132,-79 -172,-129 -41,-51 -64,-105 -64,-161zm2373 -1254l-294 10c-49,2 -41,-3 -41,-52l0 -468c0,-24 -2,-22 -28,-20l-320 29c-26,2 -22,15 -22,41l0 1904c0,31 -5,25 27,28l310 25c40,3 35,4 35,-34l0 -486c0,-18 -1,-25 18,-25l331 12c20,1 20,2 20,21l0 395c0,71 -21,134 -64,187 -44,55 -101,98 -169,125 -71,28 -147,36 -222,28 -87,-9 -131,-13 -219,-22 -123,-12 -226,-61 -309,-145 -84,-84 -126,-174 -126,-271 0,-537 0,-1075 0,-1612 0,-58 21,-117 62,-176 41,-59 98,-109 168,-150 71,-42 144,-67 217,-74 86,-9 129,-14 215,-24 75,-9 149,1 217,31 71,32 129,76 169,131 42,56 62,118 62,182l0 365c0,33 -4,44 -35,45z"/>
  <path id="eye" class="fil1" d="M5417 1414c-79,0 -157,0 -236,0 -52,0 -89,-22 -98,-74 -10,-53 19,-86 67,-103 158,-55 315,-112 473,-165 72,-24 127,14 130,89 2,51 2,102 0,154 -2,67 -37,99 -105,100 -77,1 -153,0 -230,0zm-868 0c-79,0 -158,1 -236,0 -71,-1 -105,-34 -107,-105 -1,-49 -2,-99 0,-148 3,-83 57,-120 136,-93 158,54 315,111 473,165 49,17 79,48 71,101 -8,55 -46,79 -101,79 -79,0 -158,0 -236,0z"/>
 </g>
</svg>
