<?xml version="1.0" encoding="UTF-8"?>
<!DOCTYPE svg PUBLIC "-//W3C//DTD SVG 1.1//EN" "http://www.w3.org/Graphics/SVG/1.1/DTD/svg11.dtd">
<!-- Creator: CorelDRAW 2017 -->
<svg xmlns="http://www.w3.org/2000/svg" xml:space="preserve" width="81.7129mm" height="82.0001mm" version="1.1" style="shape-rendering:geometricPrecision; text-rendering:geometricPrecision; image-rendering:optimizeQuality; fill-rule:evenodd; clip-rule:evenodd"
viewBox="0 0 465 467"
 xmlns:xlink="http://www.w3.org/1999/xlink">
 <defs>
  <style type="text/css">
   <![CDATA[
    .fil0 {fill:#E61B0E}
   ]]>
  </style>
 </defs>
 <g id="Слой_x0020_1">
  <metadata id="CorelCorpID_0Corel-Layer"/>
  <path class="fil0" d="M331 199c74,0 134,60 134,134 0,74 -60,134 -134,134 -74,0 -134,-60 -134,-134 0,-74 60,-134 134,-134zm-220 31c0,3 -1,6 -2,9 -1,3 -3,5 -5,7 -2,2 -5,3 -8,4 -3,1 -6,1 -10,1 -2,0 -4,0 -6,0 -2,0 -3,-1 -5,-1 -1,0 -3,-1 -3,-1 -1,0 -1,-1 -2,-1 0,0 0,-1 -1,-1 0,0 0,-1 0,-1 0,0 0,-1 0,-2 0,-1 0,-1 0,-2 0,-1 0,-2 0,-2 0,-1 0,-1 0,-2 0,0 0,-1 1,-1 0,0 0,0 1,0 0,0 1,0 1,1 1,0 2,1 3,1 1,0 2,1 4,1 2,0 3,1 6,1 2,0 4,0 5,-1 2,0 3,-1 4,-2 1,-1 2,-2 2,-3 1,-1 1,-3 1,-5 0,-2 0,-3 -1,-4 0,-1 -1,-2 -2,-3 -1,-1 -2,-1 -4,-2 -2,0 -4,-1 -6,-1 -2,0 -4,0 -5,0 -2,0 -3,0 -4,0 -1,0 -2,0 -2,-1 0,0 -1,-1 -1,-3l0 -27c0,-1 0,-2 1,-3 1,-1 1,-1 2,-1l30 0c0,0 1,0 1,0 0,0 0,1 1,1 0,0 0,1 0,2 0,1 0,2 0,3 0,2 0,3 -1,4 0,1 -1,1 -1,1l-23 0 0 14c1,0 2,0 3,0 1,0 2,0 4,0 3,0 6,0 9,1 3,1 5,2 7,4 2,2 3,3 4,6 1,2 1,5 1,8zm178 -231l22 0c2,0 3,1 3,3l0 68c0,2 -1,3 -3,3l-22 0c-2,0 -3,-1 -3,-3l0 -68c0,-2 1,-3 3,-3zm-221 0l22 0c2,0 3,1 3,3l0 68c0,2 -1,3 -3,3l-22 0c-2,0 -3,-1 -3,-3l0 -68c0,-2 1,-3 3,-3zm111 0l22 0c2,0 3,1 3,3l0 68c0,2 -1,3 -3,3l-22 0c-2,0 -3,-1 -3,-3l0 -68c0,-2 1,-3 3,-3zm-139 35l11 0 0 18c-20,1 -35,18 -35,38l0 23 349 0 0 -23c0,-20 -16,-37 -36,-38l0 -18 13 0c23,0 42,19 42,42l0 111c-6,-2 -12,-4 -18,-5l0 -45 -349 0 0 225c0,21 17,38 38,38l135 0c3,6 6,12 10,18l-160 0c-23,0 -42,-19 -42,-42l0 -300c0,-23 19,-42 42,-42zm131 143l64 0c5,0 9,4 9,9l0 17c-21,14 -39,33 -51,56l-22 0c-5,0 -9,-4 -9,-9l0 -64c0,-5 4,-9 9,-9zm-114 0l64 0c5,0 9,4 9,9l0 64c0,5 -4,9 -9,9l-64 0c-5,0 -9,-4 -9,-9l0 -64c0,-5 4,-9 9,-9zm52 -143l52 0 0 18 -52 0 0 -18zm110 0l52 0 0 18 -52 0 0 -18zm-162 246l64 0c5,0 9,4 9,9l0 64c0,5 -4,9 -9,9l-64 0c-5,0 -9,-4 -9,-9l0 -64c0,-5 4,-9 9,-9zm272 40c7,0 13,6 13,13 0,7 -6,13 -13,13 -7,0 -13,-6 -13,-13 0,-7 6,-13 13,-13zm11 -13c2,1 5,2 7,4l25 -15c5,-3 12,-1 15,4l0 0c3,5 1,12 -4,15l-25 15c0,1 0,3 0,4 0,16 -13,28 -28,28 -16,0 -28,-13 -28,-28 0,-12 7,-22 18,-26l0 -59c0,-6 5,-11 11,-11l0 0c6,0 11,5 11,11l0 59zm-11 -85c62,0 111,50 111,111 0,62 -50,111 -111,111 -62,0 -111,-50 -111,-111 0,-62 50,-111 111,-111z"/>
 </g>
</svg>
