<?xml version="1.0" encoding="UTF-8"?>
<!DOCTYPE svg PUBLIC "-//W3C//DTD SVG 1.1//EN" "http://www.w3.org/Graphics/SVG/1.1/DTD/svg11.dtd">
<!-- Creator: CorelDRAW 2017 -->
<svg xmlns="http://www.w3.org/2000/svg" xml:space="preserve" width="67.2987mm" height="82mm" version="1.1" style="shape-rendering:geometricPrecision; text-rendering:geometricPrecision; image-rendering:optimizeQuality; fill-rule:evenodd; clip-rule:evenodd"
viewBox="0 0 379 461"
 xmlns:xlink="http://www.w3.org/1999/xlink">
 <defs>
  <style type="text/css">
   <![CDATA[
    .fil0 {fill:#E61B0E}
   ]]>
  </style>
 </defs>
 <g id="Слой_x0020_1">
  <metadata id="CorelCorpID_0Corel-Layer"/>
  <path class="fil0" d="M15 1c-17,6 -15,19 -15,39l0 163c2,121 76,205 178,256 15,8 29,-4 40,-10 12,-6 23,-14 34,-21 6,-4 12,-8 17,-12 -6,-4 -11,-6 -14,-6 -2,0 -23,13 -26,15 -8,4 -18,13 -29,7 -1,-1 -2,-1 -3,-2 -4,2 -7,4 -9,4 -5,0 -38,-22 -44,-26 -17,-11 -43,-34 -56,-49 -50,-59 -60,-104 -60,-184 0,-30 -1,-115 0,-138 10,0 26,5 39,6 28,2 57,-1 84,-7 57,-12 17,-11 74,0 45,9 79,10 123,1 2,19 0,50 0,71 0,67 6,132 -20,190 -2,4 -4,8 -6,12 12,1 23,3 27,11 14,-28 23,-58 27,-91 2,-21 3,-207 -1,-216 -3,-6 -8,-11 -15,-12 -9,-2 -15,2 -21,5 -13,6 -29,9 -45,10 -33,2 -66,-5 -96,-13 -16,-4 -29,3 -45,6 -103,23 -120,-14 -140,-7zm214 310c-12,2 -40,2 -46,6 -3,2 -6,6 -6,12 0,12 24,25 34,36 -1,17 -17,44 -1,52 9,5 18,-2 24,-6 3,-2 20,-12 22,-12 8,-1 33,26 47,19 16,-9 1,-32 -1,-52 6,-5 13,-11 19,-16 8,-6 16,-11 15,-20 -1,-15 -20,-14 -37,-16 -21,-2 -13,3 -26,-28 -3,-9 -6,-18 -18,-18 -11,1 -13,10 -16,19 -3,8 -7,17 -10,26zm47 -189c0,4 0,7 0,10 0,3 -1,6 -1,8 0,2 -1,5 -2,7 -1,2 -2,5 -3,7l-66 153c-15,1 -31,2 -36,6 -4,2 -7,7 -7,14 0,9 11,19 22,27 0,1 -1,1 -2,2 -1,1 -3,2 -5,3 -2,1 -5,1 -9,1 -4,0 -8,0 -13,0 -7,0 -13,0 -17,-1 -4,0 -7,-1 -9,-2 -2,-1 -3,-2 -3,-4 0,-2 0,-3 1,-6l91 -202 -108 0c-3,0 -5,-2 -6,-5 -1,-4 -2,-9 -2,-17 0,-4 0,-7 1,-10 0,-3 1,-5 2,-7 1,-2 2,-3 3,-4 1,-1 2,-1 3,-1l153 0c2,0 4,0 6,1 2,0 3,1 4,3 1,2 2,4 2,7 0,3 1,7 1,12z"/>
 </g>
</svg>
