<?xml version="1.0" encoding="UTF-8"?>
<!DOCTYPE svg PUBLIC "-//W3C//DTD SVG 1.1//EN" "http://www.w3.org/Graphics/SVG/1.1/DTD/svg11.dtd">
<!-- Creator: CorelDRAW 2017 -->
<svg xmlns="http://www.w3.org/2000/svg" xml:space="preserve" width="82.9297mm" height="81.9274mm" version="1.1" style="shape-rendering:geometricPrecision; text-rendering:geometricPrecision; image-rendering:optimizeQuality; fill-rule:evenodd; clip-rule:evenodd"
viewBox="0 0 399 394"
 xmlns:xlink="http://www.w3.org/1999/xlink">
 <defs>
  <style type="text/css">
   <![CDATA[
    .fil0 {fill:#E61B0E}
   ]]>
  </style>
 </defs>
 <g id="Слой_x0020_1">
  <metadata id="CorelCorpID_0Corel-Layer"/>
  <path class="fil0" d="M186 157c-9,-3 -18,-1 -39,-16 -12,-8 -22,-21 -30,-38 -6,-14 -13,-39 -6,-55 9,-20 29,-16 53,-16 -1,-25 -2,-32 17,-32l144 0c20,0 15,6 16,32 12,1 26,-1 37,2 38,13 18,100 -42,118 -34,10 0,-7 -43,36 -3,2 -6,3 -8,4 1,1 2,2 3,2 28,26 24,47 24,93 0,22 -2,31 -14,45 -12,14 -18,14 -37,22 -4,16 -10,27 -30,34 -33,12 -70,-2 -94,-25 -6,-6 -10,-10 -16,-16 -7,-7 -11,-6 -19,-12 -11,8 6,8 -31,7 -14,0 -27,0 -40,-1 -4,-9 -6,-6 -18,-7 -14,-1 -14,2 -14,-12l28 -1 2 -6c1,-10 0,-100 -1,-103l-29 0 0 -11 33 0c6,-11 15,-17 32,-17 26,-1 24,0 37,14 33,-13 54,-19 93,-23 2,0 4,0 6,-1 -6,-5 -11,-12 -14,-19zm68 -93l7 21 21 1 -17 13 6 22 -18 -13 -18 13 6 -22 -17 -13 21 -1 7 -21zm16 11c44,6 42,0 10,31 8,45 14,42 -25,19 -39,23 -34,25 -25,-19 -32,-31 -34,-25 10,-31 19,-42 13,-42 31,0zm61 58c21,-1 39,-23 46,-39 13,-34 2,-48 -34,-42 -2,29 -1,56 -11,81zm-151 2c-8,-22 -12,-29 -14,-55 0,-6 0,-11 0,-16 0,-8 2,-10 -5,-12 -7,-1 -27,-1 -30,3 -11,10 1,72 49,81zm44 31c20,-1 36,1 51,10 18,-9 32,-35 38,-54 8,-28 8,-67 9,-99l-135 0c1,36 0,73 12,103 8,22 16,33 25,40zm-135 158l-42 0 0 -106c1,-12 9,-14 22,-15 14,-1 21,2 21,15l-2 106zm123 -101c-4,8 -2,82 -1,97 1,10 -9,11 -7,23 8,2 11,-3 13,-10 5,2 6,5 12,9 5,3 10,3 15,7 2,19 -35,31 -71,14 -22,-10 -28,-34 -59,-44l1 -28c12,-3 16,7 22,3 11,-8 -10,-13 -15,-13 -10,-2 -6,2 -7,-5 7,-7 32,1 41,-4 5,-10 -10,-8 -19,-8 -26,0 -22,2 -22,-7 7,-3 29,0 22,-14 -6,-2 -13,2 -23,2l0 -26c13,-3 20,-10 50,-16 21,-4 39,-6 61,-7 23,-1 38,6 50,17 13,11 17,26 17,50 0,22 4,41 -8,57 -9,12 -28,23 -47,14 -21,-10 -15,-26 -15,-51 0,-11 0,-22 0,-33 0,-12 4,-27 -10,-26z"/>
 </g>
</svg>
