<?xml version="1.0" encoding="UTF-8"?>
<!DOCTYPE svg PUBLIC "-//W3C//DTD SVG 1.1//EN" "http://www.w3.org/Graphics/SVG/1.1/DTD/svg11.dtd">
<!-- Creator: CorelDRAW 2017 -->
<svg xmlns="http://www.w3.org/2000/svg" xml:space="preserve" width="72.9935mm" height="82mm" version="1.1" style="shape-rendering:geometricPrecision; text-rendering:geometricPrecision; image-rendering:optimizeQuality; fill-rule:evenodd; clip-rule:evenodd"
viewBox="0 0 535 600"
 xmlns:xlink="http://www.w3.org/1999/xlink">
 <defs>
  <style type="text/css">
   <![CDATA[
    .fil0 {fill:#E4170F}
   ]]>
  </style>
 </defs>
 <g id="Слой_x0020_1">
  <metadata id="CorelCorpID_0Corel-Layer"/>
  <path class="fil0" d="M115 394l1 28 47 10c1,19 -4,31 14,37 10,3 21,6 34,8 19,4 21,-6 22,-30l117 23 0 98 -252 -61c-4,9 -7,12 -13,18l251 67c50,13 32,14 104,-39l92 -70 1 -159 -173 122 -246 -52zm68 -104c-1,6 -3,11 -4,17 -6,23 -6,22 -31,27 -101,20 -70,22 -86,50 -10,17 -11,-7 -21,29 -2,7 -4,16 -7,28 -6,23 -20,73 19,74 34,1 37,-66 44,-93 9,-34 -21,-19 -7,-45 4,-7 10,-8 19,-10 91,-19 81,-13 98,-68 7,-36 -17,-36 -24,-10zm-148 6l99 21c26,5 26,5 31,-18l8 -38c5,-25 6,-30 -22,-36l-112 -23c-20,-4 -23,-1 -27,17l-9 38c-8,35 0,32 32,38zm-13 -26l119 24 10 -48 -116 -24 -14 48zm234 116l97 18c36,6 36,-5 44,-38l34 -141c4,-18 1,-24 -18,-28l-125 -23c-23,-4 -28,-1 -33,19l-36 145c-11,42 -3,41 38,48zm-10 -26l118 21 -30 -83 -87 62zm1 -28l70 -52c24,-19 31,-20 41,6l18 50 29 -111 -123 -24 -34 132zm-77 -249c-35,-5 -75,-18 -102,3 -19,15 -20,59 -18,94l19 3 3 -49c1,-21 9,-37 44,-31 101,15 257,43 349,50 -17,33 -13,28 -13,73l3 61 24 1 -2 -69c0,-24 -5,-48 16,-55 11,0 16,16 16,37l1 106 22 0 2 -88c0,-97 -33,-87 -164,-106 -8,-76 7,-87 -37,-96 -35,-7 -82,-14 -117,-17 -43,-3 -45,12 -45,84zm24 -33l0 38 149 20c0,-48 6,-60 -15,-66 -30,-8 -80,-13 -113,-18 -15,-2 -21,0 -21,25zm179 420l0 97 135 -99 0 -94 -135 96z"/>
 </g>
</svg>
